<svg xmlns="http://www.w3.org/2000/svg" width="135" height="135" viewbox="0 0 135 135" preserveAspectRatio="none"><rect x="0" y="0" width="100%" height="100%" fill="rgb(135, 71, 90)" /><g fill="#ddd" style="opacity:0.072;" transform="translate(-22.632, -22.632) rotate(45, 22.632, 22.632)" ><rect x="16" y="0" width="16" height="48" /><rect x="0" y="16" width="48" height="16" /></g><g fill="#ddd" style="opacity:0.072;" transform="translate(113.16, -22.632) rotate(45, 22.632, 22.632)" ><rect x="16" y="0" width="16" height="48" /><rect x="0" y="16" width="48" height="16" /></g><g fill="#ddd" style="opacity:0.072;" transform="translate(-22.632, 113.16) rotate(45, 22.632, 22.632)" ><rect x="16" y="0" width="16" height="48" /><rect x="0" y="16" width="48" height="16" /></g><g fill="#ddd" style="opacity:0.072;" transform="translate(113.16, 113.16) rotate(45, 22.632, 22.632" ><rect x="16" y="0" width="16" height="48" /><rect x="0" y="16" width="48" height="16" /></g><g fill="#ddd" style="opacity:0.02;" transform="translate(0, -11.316) rotate(45, 22.632, 22.632)" ><rect x="16" y="0" width="16" height="48" /><rect x="0" y="16" width="48" height="16" /></g><g fill="#ddd" style="opacity:0.02;" transform="translate(0, 124.476) rotate(45, 22.632, 22.632)" ><rect x="16" y="0" width="16" height="48" /><rect x="0" y="16" width="48" height="16" /></g><g fill="#222" style="opacity:0.063333333333333;" transform="translate(22.632, -22.632) rotate(45, 22.632, 22.632)" ><rect x="16" y="0" width="16" height="48" /><rect x="0" y="16" width="48" height="16" /></g><g fill="#222" style="opacity:0.063333333333333;" transform="translate(22.632, 113.16) rotate(45, 22.632, 22.632)" ><rect x="16" y="0" width="16" height="48" /><rect x="0" y="16" width="48" height="16" /></g><g fill="#ddd" style="opacity:0.054666666666667;" transform="translate(45.264, -11.316) rotate(45, 22.632, 22.632)" ><rect x="16" y="0" width="16" height="48" /><rect x="0" y="16" width="48" height="16" /></g><g fill="#ddd" style="opacity:0.054666666666667;" transform="translate(45.264, 124.476) rotate(45, 22.632, 22.632)" ><rect x="16" y="0" width="16" height="48" /><rect x="0" y="16" width="48" height="16" /></g><g fill="#222" style="opacity:0.028666666666667;" transform="translate(67.896, -22.632) rotate(45, 22.632, 22.632)" ><rect x="16" y="0" width="16" height="48" /><rect x="0" y="16" width="48" height="16" /></g><g fill="#222" style="opacity:0.028666666666667;" transform="translate(67.896, 113.16) rotate(45, 22.632, 22.632)" ><rect x="16" y="0" width="16" height="48" /><rect x="0" y="16" width="48" height="16" /></g><g fill="#ddd" style="opacity:0.14133333333333;" transform="translate(90.528, -11.316) rotate(45, 22.632, 22.632)" ><rect x="16" y="0" width="16" height="48" /><rect x="0" y="16" width="48" height="16" /></g><g fill="#ddd" style="opacity:0.14133333333333;" transform="translate(90.528, 124.476) rotate(45, 22.632, 22.632)" ><rect x="16" y="0" width="16" height="48" /><rect x="0" y="16" width="48" height="16" /></g><g fill="#ddd" style="opacity:0.037333333333333;" transform="translate(-22.632, 0) rotate(45, 22.632, 22.632)" ><rect x="16" y="0" width="16" height="48" /><rect x="0" y="16" width="48" height="16" /></g><g fill="#ddd" style="opacity:0.037333333333333;" transform="translate(113.16, 0) rotate(45, 22.632, 22.632)" ><rect x="16" y="0" width="16" height="48" /><rect x="0" y="16" width="48" height="16" /></g><g fill="#222" style="opacity:0.028666666666667;" transform="translate(0, 11.316) rotate(45, 22.632, 22.632)" ><rect x="16" y="0" width="16" height="48" /><rect x="0" y="16" width="48" height="16" /></g><g fill="#222" style="opacity:0.028666666666667;" transform="translate(22.632, 0) rotate(45, 22.632, 22.632)" ><rect x="16" y="0" width="16" height="48" /><rect x="0" y="16" width="48" height="16" /></g><g fill="#222" style="opacity:0.063333333333333;" transform="translate(45.264, 11.316) rotate(45, 22.632, 22.632)" ><rect x="16" y="0" width="16" height="48" /><rect x="0" y="16" width="48" height="16" /></g><g fill="#222" style="opacity:0.080666666666667;" transform="translate(67.896, 0) rotate(45, 22.632, 22.632)" ><rect x="16" y="0" width="16" height="48" /><rect x="0" y="16" width="48" height="16" /></g><g fill="#ddd" style="opacity:0.10666666666667;" transform="translate(90.528, 11.316) rotate(45, 22.632, 22.632)" ><rect x="16" y="0" width="16" height="48" /><rect x="0" y="16" width="48" height="16" /></g><g fill="#222" style="opacity:0.15;" transform="translate(-22.632, 22.632) rotate(45, 22.632, 22.632)" ><rect x="16" y="0" width="16" height="48" /><rect x="0" y="16" width="48" height="16" /></g><g fill="#222" style="opacity:0.15;" transform="translate(113.16, 22.632) rotate(45, 22.632, 22.632)" ><rect x="16" y="0" width="16" height="48" /><rect x="0" y="16" width="48" height="16" /></g><g fill="#ddd" style="opacity:0.10666666666667;" transform="translate(0, 33.948) rotate(45, 22.632, 22.632)" ><rect x="16" y="0" width="16" height="48" /><rect x="0" y="16" width="48" height="16" /></g><g fill="#ddd" style="opacity:0.02;" transform="translate(22.632, 22.632) rotate(45, 22.632, 22.632)" ><rect x="16" y="0" width="16" height="48" /><rect x="0" y="16" width="48" height="16" /></g><g fill="#ddd" style="opacity:0.124;" transform="translate(45.264, 33.948) rotate(45, 22.632, 22.632)" ><rect x="16" y="0" width="16" height="48" /><rect x="0" y="16" width="48" height="16" /></g><g fill="#ddd" style="opacity:0.10666666666667;" transform="translate(67.896, 22.632) rotate(45, 22.632, 22.632)" ><rect x="16" y="0" width="16" height="48" /><rect x="0" y="16" width="48" height="16" /></g><g fill="#222" style="opacity:0.11533333333333;" transform="translate(90.528, 33.948) rotate(45, 22.632, 22.632)" ><rect x="16" y="0" width="16" height="48" /><rect x="0" y="16" width="48" height="16" /></g><g fill="#222" style="opacity:0.15;" transform="translate(-22.632, 45.264) rotate(45, 22.632, 22.632)" ><rect x="16" y="0" width="16" height="48" /><rect x="0" y="16" width="48" height="16" /></g><g fill="#222" style="opacity:0.15;" transform="translate(113.16, 45.264) rotate(45, 22.632, 22.632)" ><rect x="16" y="0" width="16" height="48" /><rect x="0" y="16" width="48" height="16" /></g><g fill="#222" style="opacity:0.13266666666667;" transform="translate(0, 56.58) rotate(45, 22.632, 22.632)" ><rect x="16" y="0" width="16" height="48" /><rect x="0" y="16" width="48" height="16" /></g><g fill="#222" style="opacity:0.046;" transform="translate(22.632, 45.264) rotate(45, 22.632, 22.632)" ><rect x="16" y="0" width="16" height="48" /><rect x="0" y="16" width="48" height="16" /></g><g fill="#222" style="opacity:0.098;" transform="translate(45.264, 56.58) rotate(45, 22.632, 22.632)" ><rect x="16" y="0" width="16" height="48" /><rect x="0" y="16" width="48" height="16" /></g><g fill="#ddd" style="opacity:0.037333333333333;" transform="translate(67.896, 45.264) rotate(45, 22.632, 22.632)" ><rect x="16" y="0" width="16" height="48" /><rect x="0" y="16" width="48" height="16" /></g><g fill="#222" style="opacity:0.11533333333333;" transform="translate(90.528, 56.58) rotate(45, 22.632, 22.632)" ><rect x="16" y="0" width="16" height="48" /><rect x="0" y="16" width="48" height="16" /></g><g fill="#ddd" style="opacity:0.14133333333333;" transform="translate(-22.632, 67.896) rotate(45, 22.632, 22.632)" ><rect x="16" y="0" width="16" height="48" /><rect x="0" y="16" width="48" height="16" /></g><g fill="#ddd" style="opacity:0.14133333333333;" transform="translate(113.16, 67.896) rotate(45, 22.632, 22.632)" ><rect x="16" y="0" width="16" height="48" /><rect x="0" y="16" width="48" height="16" /></g><g fill="#222" style="opacity:0.046;" transform="translate(0, 79.212) rotate(45, 22.632, 22.632)" ><rect x="16" y="0" width="16" height="48" /><rect x="0" y="16" width="48" height="16" /></g><g fill="#222" style="opacity:0.063333333333333;" transform="translate(22.632, 67.896) rotate(45, 22.632, 22.632)" ><rect x="16" y="0" width="16" height="48" /><rect x="0" y="16" width="48" height="16" /></g><g fill="#ddd" style="opacity:0.124;" transform="translate(45.264, 79.212) rotate(45, 22.632, 22.632)" ><rect x="16" y="0" width="16" height="48" /><rect x="0" y="16" width="48" height="16" /></g><g fill="#222" style="opacity:0.098;" transform="translate(67.896, 67.896) rotate(45, 22.632, 22.632)" ><rect x="16" y="0" width="16" height="48" /><rect x="0" y="16" width="48" height="16" /></g><g fill="#222" style="opacity:0.11533333333333;" transform="translate(90.528, 79.212) rotate(45, 22.632, 22.632)" ><rect x="16" y="0" width="16" height="48" /><rect x="0" y="16" width="48" height="16" /></g><g fill="#ddd" style="opacity:0.02;" transform="translate(-22.632, 90.528) rotate(45, 22.632, 22.632)" ><rect x="16" y="0" width="16" height="48" /><rect x="0" y="16" width="48" height="16" /></g><g fill="#ddd" style="opacity:0.02;" transform="translate(113.16, 90.528) rotate(45, 22.632, 22.632)" ><rect x="16" y="0" width="16" height="48" /><rect x="0" y="16" width="48" height="16" /></g><g fill="#ddd" style="opacity:0.02;" transform="translate(-22.632, -45.264) rotate(45, 22.632, 22.632)" ><rect x="16" y="0" width="16" height="48" /><rect x="0" y="16" width="48" height="16" /></g><g fill="#222" style="opacity:0.046;" transform="translate(0, 101.844) rotate(45, 22.632, 22.632)" ><rect x="16" y="0" width="16" height="48" /><rect x="0" y="16" width="48" height="16" /></g><g fill="#222" style="opacity:0.046;" transform="translate(0, -33.948) rotate(45, 22.632, 22.632)" ><rect x="16" y="0" width="16" height="48" /><rect x="0" y="16" width="48" height="16" /></g><g fill="#222" style="opacity:0.15;" transform="translate(22.632, 90.528) rotate(45, 22.632, 22.632)" ><rect x="16" y="0" width="16" height="48" /><rect x="0" y="16" width="48" height="16" /></g><g fill="#222" style="opacity:0.15;" transform="translate(22.632, -45.264) rotate(45, 22.632, 22.632)" ><rect x="16" y="0" width="16" height="48" /><rect x="0" y="16" width="48" height="16" /></g><g fill="#222" style="opacity:0.13266666666667;" transform="translate(45.264, 101.844) rotate(45, 22.632, 22.632)" ><rect x="16" y="0" width="16" height="48" /><rect x="0" y="16" width="48" height="16" /></g><g fill="#222" style="opacity:0.13266666666667;" transform="translate(45.264, -33.948) rotate(45, 22.632, 22.632)" ><rect x="16" y="0" width="16" height="48" /><rect x="0" y="16" width="48" height="16" /></g><g fill="#ddd" style="opacity:0.10666666666667;" transform="translate(67.896, 90.528) rotate(45, 22.632, 22.632)" ><rect x="16" y="0" width="16" height="48" /><rect x="0" y="16" width="48" height="16" /></g><g fill="#ddd" style="opacity:0.10666666666667;" transform="translate(67.896, -45.264) rotate(45, 22.632, 22.632)" ><rect x="16" y="0" width="16" height="48" /><rect x="0" y="16" width="48" height="16" /></g><g fill="#222" style="opacity:0.080666666666667;" transform="translate(90.528, 101.844) rotate(45, 22.632, 22.632)" ><rect x="16" y="0" width="16" height="48" /><rect x="0" y="16" width="48" height="16" /></g><g fill="#222" style="opacity:0.080666666666667;" transform="translate(90.528, -33.948) rotate(45, 22.632, 22.632)" ><rect x="16" y="0" width="16" height="48" /><rect x="0" y="16" width="48" height="16" /></g></svg>